<svg width="919" height="919" viewBox="0 0 919 919" fill="none" xmlns="http://www.w3.org/2000/svg">
<g clip-path="url(#clip0_2657_14)">
<path d="M0 228.317C0 102.221 102.221 0 228.317 0H690.683C816.779 0 919 102.221 919 228.317V690.683C919 816.779 816.779 919 690.683 919H228.317C102.221 919 0 816.779 0 690.683V228.317Z" fill="#171717"/>
<path d="M273.5 356.25C233.776 356.25 207.292 342.95 207.292 323H160C160 368.6 205.4 399 273.5 399C347.276 399 387 371.925 387 321.575C387 273.125 353.896 251.75 275.865 251.75C230.938 251.75 212.021 244.624 212.021 226.575C212.021 205.676 233.303 194.75 273.5 194.75C310.388 194.75 334.979 208.05 334.979 228H382.272C382.272 182.4 338.763 152 273.5 152C202.562 152 164.728 178.125 164.728 226.575C164.728 274.551 196.888 294.501 271.608 294.501C318.9 294.501 339.709 302.575 339.709 321.575C339.709 343.9 316.535 356.25 273.5 356.25Z" fill="#DDDDDD"/>
<path d="M556.374 253.27V196.461H744V152H507V399H556.374V297.73H694.624V253.27H556.374Z" fill="#DDDDDD"/>
<path d="M240.31 600.589C240.31 581.776 256.181 566.824 286 566.824C315.819 566.824 331.69 576.952 331.69 595.764C331.69 609.753 320.628 617.953 282.633 632.906C220.109 657.506 185 693.682 185 733.235V767H387V723.587H240.31C240.31 705.258 264.838 688.376 300.909 674.388C361.029 650.753 382.19 630.494 382.19 595.764C382.19 549.94 345.158 521 286 521C223.958 521 189.81 552.353 189.81 600.589H240.31Z" fill="#DDDDDD"/>
<path d="M709.578 594.327H660.111C660.111 585.812 655.871 579.188 647.862 573.985C639.382 568.781 629.018 565.942 615.827 565.942C579.551 565.942 559.764 587.704 556.938 630.754C564.947 626.023 574.369 622.238 585.676 618.454C596.982 615.142 609.231 613.25 622.422 613.25C651.631 613.25 675.187 620.346 692.618 634.065C710.049 647.785 719 666.235 719 688.942C719 713.069 709.578 731.992 691.676 746.185C673.773 760.377 648.804 767 617.711 767C580.964 767 553.64 756.592 534.796 735.304C515.951 714.488 507 683.738 507 644C507 604.735 516.422 574.458 535.267 553.169C554.111 531.881 580.964 521 615.827 521C644.093 521 667.178 527.623 684.138 540.869C701.098 554.115 709.578 572.092 709.578 594.327ZM618.182 722.058C633.729 722.058 645.978 719.219 655.4 713.069C664.822 707.392 669.533 699.35 669.533 688.942C669.533 667.181 650.689 655.827 613.942 655.827C602.636 655.827 592.742 658.192 583.32 661.977C573.898 665.762 565.889 670.019 559.293 674.75C565.889 706.446 585.204 722.058 618.182 722.058Z" fill="#DDDDDD"/>
</g>
<defs>
<clipPath id="clip0_2657_14">
<rect width="919" height="919" fill="white"/>
</clipPath>
</defs>
</svg>
